<svg
      xmlns="http://www.w3.org/2000/svg"
      width="26"
      height="26"
      fill="none"
      viewBox="0 0 26 26"
    >
      <path
        fill="#cef739"
        fillRule="evenodd"
        d="M1.947 2.145C3.223.777 5.047 0 7.228 0H18.77c2.186 0 4.012.776 5.287 2.146C25.327 3.51 26 5.406 26 7.562v10.876c0 2.156-.673 4.052-1.943 5.416C22.78 25.224 20.956 26 18.769 26H7.23c-2.187 0-4.012-.776-5.286-2.146C.673 22.49 0 20.594 0 18.438V7.562C0 5.405.676 3.51 1.947 2.145M17.314 9.02a1.026 1.026 0 1 0-1.635-1.241l-6.993 9.204a1.026 1.026 0 0 0 1.635 1.242z"
        clipRule="evenodd"
      />
      
    </svg>